%TF.GenerationSoftware,KiCad,Pcbnew,(6.0.7)*%
%TF.CreationDate,2022-09-02T16:32:09-04:00*%
%TF.ProjectId,GettingToBlink5.0,47657474-696e-4675-946f-426c696e6b35,rev?*%
%TF.SameCoordinates,Original*%
%TF.FileFunction,Legend,Top*%
%TF.FilePolarity,Positive*%
%FSLAX46Y46*%
G04 Gerber Fmt 4.6, Leading zero omitted, Abs format (unit mm)*
G04 Created by KiCad (PCBNEW (6.0.7)) date 2022-09-02 16:32:09*
%MOMM*%
%LPD*%
G01*
G04 APERTURE LIST*
%ADD10C,0.200000*%
%ADD11C,0.120000*%
G04 APERTURE END LIST*
D10*
X152452380Y-91750000D02*
X152328571Y-91688095D01*
X152142857Y-91688095D01*
X151957142Y-91750000D01*
X151833333Y-91873809D01*
X151771428Y-91997619D01*
X151709523Y-92245238D01*
X151709523Y-92430952D01*
X151771428Y-92678571D01*
X151833333Y-92802380D01*
X151957142Y-92926190D01*
X152142857Y-92988095D01*
X152266666Y-92988095D01*
X152452380Y-92926190D01*
X152514285Y-92864285D01*
X152514285Y-92430952D01*
X152266666Y-92430952D01*
X152885714Y-91688095D02*
X153628571Y-91688095D01*
X153257142Y-92988095D02*
X153257142Y-91688095D01*
X154495238Y-92307142D02*
X154680952Y-92369047D01*
X154742857Y-92430952D01*
X154804761Y-92554761D01*
X154804761Y-92740476D01*
X154742857Y-92864285D01*
X154680952Y-92926190D01*
X154557142Y-92988095D01*
X154061904Y-92988095D01*
X154061904Y-91688095D01*
X154495238Y-91688095D01*
X154619047Y-91750000D01*
X154680952Y-91811904D01*
X154742857Y-91935714D01*
X154742857Y-92059523D01*
X154680952Y-92183333D01*
X154619047Y-92245238D01*
X154495238Y-92307142D01*
X154061904Y-92307142D01*
X156971428Y-91688095D02*
X156352380Y-91688095D01*
X156290476Y-92307142D01*
X156352380Y-92245238D01*
X156476190Y-92183333D01*
X156785714Y-92183333D01*
X156909523Y-92245238D01*
X156971428Y-92307142D01*
X157033333Y-92430952D01*
X157033333Y-92740476D01*
X156971428Y-92864285D01*
X156909523Y-92926190D01*
X156785714Y-92988095D01*
X156476190Y-92988095D01*
X156352380Y-92926190D01*
X156290476Y-92864285D01*
X157590476Y-92864285D02*
X157652380Y-92926190D01*
X157590476Y-92988095D01*
X157528571Y-92926190D01*
X157590476Y-92864285D01*
X157590476Y-92988095D01*
X158457142Y-91688095D02*
X158580952Y-91688095D01*
X158704761Y-91750000D01*
X158766666Y-91811904D01*
X158828571Y-91935714D01*
X158890476Y-92183333D01*
X158890476Y-92492857D01*
X158828571Y-92740476D01*
X158766666Y-92864285D01*
X158704761Y-92926190D01*
X158580952Y-92988095D01*
X158457142Y-92988095D01*
X158333333Y-92926190D01*
X158271428Y-92864285D01*
X158209523Y-92740476D01*
X158147619Y-92492857D01*
X158147619Y-92183333D01*
X158209523Y-91935714D01*
X158271428Y-91811904D01*
X158333333Y-91750000D01*
X158457142Y-91688095D01*
X155845238Y-109916666D02*
X156464285Y-109916666D01*
X155721428Y-110288095D02*
X156154761Y-108988095D01*
X156588095Y-110288095D01*
X157392857Y-108988095D02*
X157392857Y-109916666D01*
X157330952Y-110102380D01*
X157207142Y-110226190D01*
X157021428Y-110288095D01*
X156897619Y-110288095D01*
X158011904Y-110288095D02*
X158011904Y-108988095D01*
X158507142Y-108988095D01*
X158630952Y-109050000D01*
X158692857Y-109111904D01*
X158754761Y-109235714D01*
X158754761Y-109421428D01*
X158692857Y-109545238D01*
X158630952Y-109607142D01*
X158507142Y-109669047D01*
X158011904Y-109669047D01*
%TO.C,R2*%
X153788095Y-101216666D02*
X153169047Y-101650000D01*
X153788095Y-101959523D02*
X152488095Y-101959523D01*
X152488095Y-101464285D01*
X152550000Y-101340476D01*
X152611904Y-101278571D01*
X152735714Y-101216666D01*
X152921428Y-101216666D01*
X153045238Y-101278571D01*
X153107142Y-101340476D01*
X153169047Y-101464285D01*
X153169047Y-101959523D01*
X152611904Y-100721428D02*
X152550000Y-100659523D01*
X152488095Y-100535714D01*
X152488095Y-100226190D01*
X152550000Y-100102380D01*
X152611904Y-100040476D01*
X152735714Y-99978571D01*
X152859523Y-99978571D01*
X153045238Y-100040476D01*
X153788095Y-100783333D01*
X153788095Y-99978571D01*
%TO.C,R1*%
X153788095Y-96216666D02*
X153169047Y-96650000D01*
X153788095Y-96959523D02*
X152488095Y-96959523D01*
X152488095Y-96464285D01*
X152550000Y-96340476D01*
X152611904Y-96278571D01*
X152735714Y-96216666D01*
X152921428Y-96216666D01*
X153045238Y-96278571D01*
X153107142Y-96340476D01*
X153169047Y-96464285D01*
X153169047Y-96959523D01*
X153788095Y-94978571D02*
X153788095Y-95721428D01*
X153788095Y-95350000D02*
X152488095Y-95350000D01*
X152673809Y-95473809D01*
X152797619Y-95597619D01*
X152859523Y-95721428D01*
%TO.C,C1*%
X135364285Y-96179166D02*
X135426190Y-96241071D01*
X135488095Y-96426785D01*
X135488095Y-96550595D01*
X135426190Y-96736309D01*
X135302380Y-96860119D01*
X135178571Y-96922023D01*
X134930952Y-96983928D01*
X134745238Y-96983928D01*
X134497619Y-96922023D01*
X134373809Y-96860119D01*
X134250000Y-96736309D01*
X134188095Y-96550595D01*
X134188095Y-96426785D01*
X134250000Y-96241071D01*
X134311904Y-96179166D01*
X135488095Y-94941071D02*
X135488095Y-95683928D01*
X135488095Y-95312500D02*
X134188095Y-95312500D01*
X134373809Y-95436309D01*
X134497619Y-95560119D01*
X134559523Y-95683928D01*
%TO.C,U1*%
X143009523Y-96688095D02*
X143009523Y-97740476D01*
X143071428Y-97864285D01*
X143133333Y-97926190D01*
X143257142Y-97988095D01*
X143504761Y-97988095D01*
X143628571Y-97926190D01*
X143690476Y-97864285D01*
X143752380Y-97740476D01*
X143752380Y-96688095D01*
X145052380Y-97988095D02*
X144309523Y-97988095D01*
X144680952Y-97988095D02*
X144680952Y-96688095D01*
X144557142Y-96873809D01*
X144433333Y-96997619D01*
X144309523Y-97059523D01*
%TO.C,R3*%
X135488095Y-101216666D02*
X134869047Y-101650000D01*
X135488095Y-101959523D02*
X134188095Y-101959523D01*
X134188095Y-101464285D01*
X134250000Y-101340476D01*
X134311904Y-101278571D01*
X134435714Y-101216666D01*
X134621428Y-101216666D01*
X134745238Y-101278571D01*
X134807142Y-101340476D01*
X134869047Y-101464285D01*
X134869047Y-101959523D01*
X134188095Y-100783333D02*
X134188095Y-99978571D01*
X134683333Y-100411904D01*
X134683333Y-100226190D01*
X134745238Y-100102380D01*
X134807142Y-100040476D01*
X134930952Y-99978571D01*
X135240476Y-99978571D01*
X135364285Y-100040476D01*
X135426190Y-100102380D01*
X135488095Y-100226190D01*
X135488095Y-100597619D01*
X135426190Y-100721428D01*
X135364285Y-100783333D01*
%TO.C,D1*%
X135488095Y-106959523D02*
X134188095Y-106959523D01*
X134188095Y-106650000D01*
X134250000Y-106464285D01*
X134373809Y-106340476D01*
X134497619Y-106278571D01*
X134745238Y-106216666D01*
X134930952Y-106216666D01*
X135178571Y-106278571D01*
X135302380Y-106340476D01*
X135426190Y-106464285D01*
X135488095Y-106650000D01*
X135488095Y-106959523D01*
X135488095Y-104978571D02*
X135488095Y-105721428D01*
X135488095Y-105350000D02*
X134188095Y-105350000D01*
X134373809Y-105473809D01*
X134497619Y-105597619D01*
X134559523Y-105721428D01*
D11*
%TO.C,R2*%
X151735000Y-100772936D02*
X151735000Y-101227064D01*
X150265000Y-100772936D02*
X150265000Y-101227064D01*
%TO.C,R1*%
X151735000Y-95772936D02*
X151735000Y-96227064D01*
X150265000Y-95772936D02*
X150265000Y-96227064D01*
%TO.C,C1*%
X136265000Y-96223752D02*
X136265000Y-95701248D01*
X137735000Y-96223752D02*
X137735000Y-95701248D01*
%TO.C,U1*%
X144000000Y-103560000D02*
X145950000Y-103560000D01*
X144000000Y-103560000D02*
X142050000Y-103560000D01*
X144000000Y-98440000D02*
X140550000Y-98440000D01*
X144000000Y-98440000D02*
X145950000Y-98440000D01*
%TO.C,R3*%
X137735000Y-100772936D02*
X137735000Y-101227064D01*
X136265000Y-100772936D02*
X136265000Y-101227064D01*
%TO.C,D1*%
X136040000Y-107860000D02*
X137960000Y-107860000D01*
X137960000Y-107860000D02*
X137960000Y-105000000D01*
X136040000Y-105000000D02*
X136040000Y-107860000D01*
%TD*%
M02*
