%TF.GenerationSoftware,KiCad,Pcbnew,(6.0.7)*%
%TF.CreationDate,2022-09-02T16:32:09-04:00*%
%TF.ProjectId,GettingToBlink5.0,47657474-696e-4675-946f-426c696e6b35,rev?*%
%TF.SameCoordinates,Original*%
%TF.FileFunction,Copper,L1,Top*%
%TF.FilePolarity,Positive*%
%FSLAX46Y46*%
G04 Gerber Fmt 4.6, Leading zero omitted, Abs format (unit mm)*
G04 Created by KiCad (PCBNEW (6.0.7)) date 2022-09-02 16:32:09*
%MOMM*%
%LPD*%
G01*
G04 APERTURE LIST*
G04 Aperture macros list*
%AMRoundRect*
0 Rectangle with rounded corners*
0 $1 Rounding radius*
0 $2 $3 $4 $5 $6 $7 $8 $9 X,Y pos of 4 corners*
0 Add a 4 corners polygon primitive as box body*
4,1,4,$2,$3,$4,$5,$6,$7,$8,$9,$2,$3,0*
0 Add four circle primitives for the rounded corners*
1,1,$1+$1,$2,$3*
1,1,$1+$1,$4,$5*
1,1,$1+$1,$6,$7*
1,1,$1+$1,$8,$9*
0 Add four rect primitives between the rounded corners*
20,1,$1+$1,$2,$3,$4,$5,0*
20,1,$1+$1,$4,$5,$6,$7,0*
20,1,$1+$1,$6,$7,$8,$9,0*
20,1,$1+$1,$8,$9,$2,$3,0*%
G04 Aperture macros list end*
%TA.AperFunction,SMDPad,CuDef*%
%ADD10RoundRect,0.250000X-0.450000X0.350000X-0.450000X-0.350000X0.450000X-0.350000X0.450000X0.350000X0*%
%TD*%
%TA.AperFunction,SMDPad,CuDef*%
%ADD11RoundRect,0.250000X0.475000X-0.337500X0.475000X0.337500X-0.475000X0.337500X-0.475000X-0.337500X0*%
%TD*%
%TA.AperFunction,SMDPad,CuDef*%
%ADD12RoundRect,0.150000X-0.825000X-0.150000X0.825000X-0.150000X0.825000X0.150000X-0.825000X0.150000X0*%
%TD*%
%TA.AperFunction,SMDPad,CuDef*%
%ADD13RoundRect,0.250000X0.450000X-0.325000X0.450000X0.325000X-0.450000X0.325000X-0.450000X-0.325000X0*%
%TD*%
%TA.AperFunction,ViaPad*%
%ADD14C,0.800000*%
%TD*%
%TA.AperFunction,Conductor*%
%ADD15C,0.250000*%
%TD*%
G04 APERTURE END LIST*
D10*
%TO.P,R2,1*%
%TO.N,/DIS*%
X151000000Y-100000000D03*
%TO.P,R2,2*%
%TO.N,/THR*%
X151000000Y-102000000D03*
%TD*%
%TO.P,R1,1*%
%TO.N,/VDD*%
X151000000Y-95000000D03*
%TO.P,R1,2*%
%TO.N,/DIS*%
X151000000Y-97000000D03*
%TD*%
D11*
%TO.P,C1,2*%
%TO.N,GND*%
X137000000Y-94925000D03*
%TO.P,C1,1*%
%TO.N,/THR*%
X137000000Y-97000000D03*
%TD*%
D12*
%TO.P,U1,1,GND*%
%TO.N,GND*%
X141525000Y-99095000D03*
%TO.P,U1,2,~{TRIG}*%
%TO.N,/THR*%
X141525000Y-100365000D03*
%TO.P,U1,3,OUT*%
%TO.N,/OUT*%
X141525000Y-101635000D03*
%TO.P,U1,4,~{RST}*%
%TO.N,/VDD*%
X141525000Y-102905000D03*
%TO.P,U1,5,CTRL*%
%TO.N,unconnected-(U1-Pad5)*%
X146475000Y-102905000D03*
%TO.P,U1,6,THR*%
%TO.N,/THR*%
X146475000Y-101635000D03*
%TO.P,U1,7,DIS*%
%TO.N,/DIS*%
X146475000Y-100365000D03*
%TO.P,U1,8,VDD*%
%TO.N,/VDD*%
X146475000Y-99095000D03*
%TD*%
D10*
%TO.P,R3,1*%
%TO.N,/OUT*%
X137000000Y-100000000D03*
%TO.P,R3,2*%
%TO.N,Net-(D1-Pad2)*%
X137000000Y-102000000D03*
%TD*%
D13*
%TO.P,D1,1,K*%
%TO.N,GND*%
X137000000Y-107025000D03*
%TO.P,D1,2,A*%
%TO.N,Net-(D1-Pad2)*%
X137000000Y-104975000D03*
%TD*%
D14*
%TO.N,/VDD*%
X131200000Y-96100000D03*
X156800000Y-96000000D03*
%TO.N,GND*%
X141900000Y-97000000D03*
X137000000Y-93000000D03*
X137000000Y-109000000D03*
%TD*%
D15*
%TO.N,/OUT*%
X138130000Y-100000000D02*
X139765000Y-101635000D01*
X137000000Y-100000000D02*
X138130000Y-100000000D01*
X139765000Y-101635000D02*
X141525000Y-101635000D01*
%TO.N,/THR*%
X140365000Y-100365000D02*
X141525000Y-100365000D01*
X137000000Y-97000000D02*
X140365000Y-100365000D01*
%TO.N,/DIS*%
X151000000Y-100000000D02*
X151000000Y-97000000D01*
%TO.N,/THR*%
X150635000Y-101635000D02*
X151000000Y-102000000D01*
X146475000Y-101635000D02*
X150635000Y-101635000D01*
%TO.N,/DIS*%
X150635000Y-100365000D02*
X151000000Y-100000000D01*
X146475000Y-100365000D02*
X150635000Y-100365000D01*
%TO.N,GND*%
X137000000Y-107025000D02*
X137000000Y-109000000D01*
%TO.N,Net-(D1-Pad2)*%
X137000000Y-102000000D02*
X137000000Y-104975000D01*
%TO.N,GND*%
X137000000Y-94962500D02*
X137000000Y-93000000D01*
X141525000Y-99095000D02*
X141525000Y-97375000D01*
X141525000Y-97375000D02*
X141900000Y-97000000D01*
%TO.N,/THR*%
X141525000Y-100365000D02*
X143365000Y-100365000D01*
X143365000Y-100365000D02*
X144600000Y-101600000D01*
X144600000Y-101600000D02*
X144635000Y-101635000D01*
X144635000Y-101635000D02*
X146475000Y-101635000D01*
%TD*%
%TA.AperFunction,Conductor*%
%TO.N,/VDD*%
G36*
X159543039Y-90919685D02*
G01*
X159588794Y-90972489D01*
X159600000Y-91024000D01*
X159600000Y-110976000D01*
X159580315Y-111043039D01*
X159527511Y-111088794D01*
X159476000Y-111100000D01*
X128524000Y-111100000D01*
X128456961Y-111080315D01*
X128411206Y-111027511D01*
X128400000Y-110976000D01*
X128400000Y-107403834D01*
X136099500Y-107403834D01*
X136102481Y-107435369D01*
X136147366Y-107563184D01*
X136227850Y-107672150D01*
X136235306Y-107677657D01*
X136329361Y-107747128D01*
X136329363Y-107747129D01*
X136336816Y-107752634D01*
X136345555Y-107755703D01*
X136345557Y-107755704D01*
X136393242Y-107772449D01*
X136464631Y-107797519D01*
X136472150Y-107798230D01*
X136472151Y-107798230D01*
X136493252Y-107800225D01*
X136493262Y-107800225D01*
X136496166Y-107800500D01*
X136550500Y-107800500D01*
X136617539Y-107820185D01*
X136663294Y-107872989D01*
X136674500Y-107924500D01*
X136674500Y-108431701D01*
X136654815Y-108498740D01*
X136625986Y-108530077D01*
X136571718Y-108571718D01*
X136475464Y-108697159D01*
X136414956Y-108843238D01*
X136394318Y-109000000D01*
X136414956Y-109156762D01*
X136475464Y-109302841D01*
X136571718Y-109428282D01*
X136697159Y-109524536D01*
X136704667Y-109527646D01*
X136835729Y-109581934D01*
X136835731Y-109581935D01*
X136843238Y-109585044D01*
X137000000Y-109605682D01*
X137008059Y-109604621D01*
X137148703Y-109586105D01*
X137156762Y-109585044D01*
X137164269Y-109581935D01*
X137164271Y-109581934D01*
X137295333Y-109527646D01*
X137302841Y-109524536D01*
X137428282Y-109428282D01*
X137524536Y-109302841D01*
X137585044Y-109156762D01*
X137605682Y-109000000D01*
X137585044Y-108843238D01*
X137524536Y-108697159D01*
X137428282Y-108571718D01*
X137374014Y-108530077D01*
X137332811Y-108473649D01*
X137325500Y-108431701D01*
X137325500Y-107924500D01*
X137345185Y-107857461D01*
X137397989Y-107811706D01*
X137449500Y-107800500D01*
X137503834Y-107800500D01*
X137506738Y-107800225D01*
X137506748Y-107800225D01*
X137527849Y-107798230D01*
X137527850Y-107798230D01*
X137535369Y-107797519D01*
X137606758Y-107772449D01*
X137654443Y-107755704D01*
X137654445Y-107755703D01*
X137663184Y-107752634D01*
X137670637Y-107747129D01*
X137670639Y-107747128D01*
X137764694Y-107677657D01*
X137772150Y-107672150D01*
X137852634Y-107563184D01*
X137897519Y-107435369D01*
X137900500Y-107403834D01*
X137900500Y-106646166D01*
X137897519Y-106614631D01*
X137852634Y-106486816D01*
X137772150Y-106377850D01*
X137742304Y-106355805D01*
X137670639Y-106302872D01*
X137670637Y-106302871D01*
X137663184Y-106297366D01*
X137654445Y-106294297D01*
X137654443Y-106294296D01*
X137606758Y-106277551D01*
X137535369Y-106252481D01*
X137527850Y-106251770D01*
X137527849Y-106251770D01*
X137506748Y-106249775D01*
X137506738Y-106249775D01*
X137503834Y-106249500D01*
X136496166Y-106249500D01*
X136493262Y-106249775D01*
X136493252Y-106249775D01*
X136472151Y-106251770D01*
X136472150Y-106251770D01*
X136464631Y-106252481D01*
X136393242Y-106277551D01*
X136345557Y-106294296D01*
X136345555Y-106294297D01*
X136336816Y-106297366D01*
X136329363Y-106302871D01*
X136329361Y-106302872D01*
X136257696Y-106355805D01*
X136227850Y-106377850D01*
X136147366Y-106486816D01*
X136102481Y-106614631D01*
X136099500Y-106646166D01*
X136099500Y-107403834D01*
X128400000Y-107403834D01*
X128400000Y-105353834D01*
X136099500Y-105353834D01*
X136102481Y-105385369D01*
X136147366Y-105513184D01*
X136227850Y-105622150D01*
X136235306Y-105627657D01*
X136329361Y-105697128D01*
X136329363Y-105697129D01*
X136336816Y-105702634D01*
X136345555Y-105705703D01*
X136345557Y-105705704D01*
X136393242Y-105722449D01*
X136464631Y-105747519D01*
X136472150Y-105748230D01*
X136472151Y-105748230D01*
X136493252Y-105750225D01*
X136493262Y-105750225D01*
X136496166Y-105750500D01*
X137503834Y-105750500D01*
X137506738Y-105750225D01*
X137506748Y-105750225D01*
X137527849Y-105748230D01*
X137527850Y-105748230D01*
X137535369Y-105747519D01*
X137606758Y-105722449D01*
X137654443Y-105705704D01*
X137654445Y-105705703D01*
X137663184Y-105702634D01*
X137670637Y-105697129D01*
X137670639Y-105697128D01*
X137764694Y-105627657D01*
X137772150Y-105622150D01*
X137852634Y-105513184D01*
X137897519Y-105385369D01*
X137900500Y-105353834D01*
X137900500Y-104596166D01*
X137897519Y-104564631D01*
X137852634Y-104436816D01*
X137772150Y-104327850D01*
X137742304Y-104305805D01*
X137670639Y-104252872D01*
X137670637Y-104252871D01*
X137663184Y-104247366D01*
X137654445Y-104244297D01*
X137654443Y-104244296D01*
X137606758Y-104227551D01*
X137535369Y-104202481D01*
X137527850Y-104201770D01*
X137527849Y-104201770D01*
X137506748Y-104199775D01*
X137506738Y-104199775D01*
X137503834Y-104199500D01*
X137449500Y-104199500D01*
X137382461Y-104179815D01*
X137336706Y-104127011D01*
X137325500Y-104075500D01*
X137325500Y-103083642D01*
X140350001Y-103083642D01*
X140350662Y-103092664D01*
X140358722Y-103147426D01*
X140364375Y-103165622D01*
X140406961Y-103252358D01*
X140418734Y-103268803D01*
X140486691Y-103336642D01*
X140503150Y-103348381D01*
X140589977Y-103390823D01*
X140608152Y-103396441D01*
X140662372Y-103404351D01*
X140671320Y-103405000D01*
X141382170Y-103405000D01*
X141397169Y-103400596D01*
X141398356Y-103399226D01*
X141400000Y-103391668D01*
X141400000Y-103387169D01*
X141650000Y-103387169D01*
X141654404Y-103402168D01*
X141655774Y-103403355D01*
X141663332Y-103404999D01*
X142378642Y-103404999D01*
X142387664Y-103404338D01*
X142442426Y-103396278D01*
X142460622Y-103390625D01*
X142547358Y-103348039D01*
X142563803Y-103336266D01*
X142631642Y-103268309D01*
X142643381Y-103251850D01*
X142685823Y-103165023D01*
X142691441Y-103146848D01*
X142699351Y-103092628D01*
X142699671Y-103088218D01*
X145299500Y-103088218D01*
X145309642Y-103157112D01*
X145361068Y-103261855D01*
X145368323Y-103269097D01*
X145436021Y-103336677D01*
X145443650Y-103344293D01*
X145452855Y-103348792D01*
X145452857Y-103348794D01*
X145509644Y-103376552D01*
X145548482Y-103395536D01*
X145558006Y-103396925D01*
X145558008Y-103396926D01*
X145612331Y-103404851D01*
X145612336Y-103404851D01*
X145616782Y-103405500D01*
X147333218Y-103405500D01*
X147402112Y-103395358D01*
X147506855Y-103343932D01*
X147589293Y-103261350D01*
X147593792Y-103252145D01*
X147593794Y-103252143D01*
X147636308Y-103165167D01*
X147640536Y-103156518D01*
X147650500Y-103088218D01*
X147650500Y-102721782D01*
X147640358Y-102652888D01*
X147588932Y-102548145D01*
X147514391Y-102473734D01*
X147513602Y-102472946D01*
X147513601Y-102472945D01*
X147506350Y-102465707D01*
X147497145Y-102461208D01*
X147497143Y-102461206D01*
X147418635Y-102422831D01*
X147401518Y-102414464D01*
X147391994Y-102413075D01*
X147391992Y-102413074D01*
X147337669Y-102405149D01*
X147337664Y-102405149D01*
X147333218Y-102404500D01*
X145616782Y-102404500D01*
X145547888Y-102414642D01*
X145443145Y-102466068D01*
X145360707Y-102548650D01*
X145356208Y-102557855D01*
X145356206Y-102557857D01*
X145328448Y-102614644D01*
X145309464Y-102653482D01*
X145308075Y-102663006D01*
X145308074Y-102663008D01*
X145306741Y-102672150D01*
X145299500Y-102721782D01*
X145299500Y-103088218D01*
X142699671Y-103088218D01*
X142700000Y-103083680D01*
X142700000Y-103047830D01*
X142695596Y-103032831D01*
X142694226Y-103031644D01*
X142686668Y-103030000D01*
X141667830Y-103030000D01*
X141652831Y-103034404D01*
X141651644Y-103035774D01*
X141650000Y-103043332D01*
X141650000Y-103387169D01*
X141400000Y-103387169D01*
X141400000Y-103047830D01*
X141395596Y-103032831D01*
X141394226Y-103031644D01*
X141386668Y-103030000D01*
X140367831Y-103030000D01*
X140352832Y-103034404D01*
X140351645Y-103035774D01*
X140350001Y-103043332D01*
X140350001Y-103083642D01*
X137325500Y-103083642D01*
X137325500Y-102924500D01*
X137345185Y-102857461D01*
X137397989Y-102811706D01*
X137449500Y-102800500D01*
X137503834Y-102800500D01*
X137506738Y-102800225D01*
X137506748Y-102800225D01*
X137527849Y-102798230D01*
X137527850Y-102798230D01*
X137535369Y-102797519D01*
X137623221Y-102766668D01*
X137636030Y-102762170D01*
X140350000Y-102762170D01*
X140354404Y-102777169D01*
X140355774Y-102778356D01*
X140363332Y-102780000D01*
X141382170Y-102780000D01*
X141397169Y-102775596D01*
X141398356Y-102774226D01*
X141400000Y-102766668D01*
X141400000Y-102762170D01*
X141650000Y-102762170D01*
X141654404Y-102777169D01*
X141655774Y-102778356D01*
X141663332Y-102780000D01*
X142682169Y-102780000D01*
X142697168Y-102775596D01*
X142698355Y-102774226D01*
X142699999Y-102766668D01*
X142699999Y-102726358D01*
X142699338Y-102717336D01*
X142691278Y-102662574D01*
X142685625Y-102644378D01*
X142643039Y-102557642D01*
X142631266Y-102541197D01*
X142563309Y-102473358D01*
X142546850Y-102461619D01*
X142460023Y-102419177D01*
X142441848Y-102413559D01*
X142387628Y-102405649D01*
X142378680Y-102405000D01*
X141667830Y-102405000D01*
X141652831Y-102409404D01*
X141651644Y-102410774D01*
X141650000Y-102418332D01*
X141650000Y-102762170D01*
X141400000Y-102762170D01*
X141400000Y-102422831D01*
X141395596Y-102407832D01*
X141394226Y-102406645D01*
X141386668Y-102405001D01*
X140671358Y-102405001D01*
X140662336Y-102405662D01*
X140607574Y-102413722D01*
X140589378Y-102419375D01*
X140502642Y-102461961D01*
X140486197Y-102473734D01*
X140418358Y-102541691D01*
X140406619Y-102558150D01*
X140364177Y-102644977D01*
X140358559Y-102663152D01*
X140350649Y-102717372D01*
X140350000Y-102726320D01*
X140350000Y-102762170D01*
X137636030Y-102762170D01*
X137654443Y-102755704D01*
X137654445Y-102755703D01*
X137663184Y-102752634D01*
X137670637Y-102747129D01*
X137670639Y-102747128D01*
X137764694Y-102677657D01*
X137772150Y-102672150D01*
X137852634Y-102563184D01*
X137857916Y-102548145D01*
X137884178Y-102473358D01*
X137897519Y-102435369D01*
X137899077Y-102418888D01*
X137900225Y-102406748D01*
X137900225Y-102406738D01*
X137900500Y-102403834D01*
X137900500Y-101596166D01*
X137897519Y-101564631D01*
X137852634Y-101436816D01*
X137772150Y-101327850D01*
X137704855Y-101278145D01*
X137670639Y-101252872D01*
X137670637Y-101252871D01*
X137663184Y-101247366D01*
X137654445Y-101244297D01*
X137654443Y-101244296D01*
X137606758Y-101227551D01*
X137535369Y-101202481D01*
X137527850Y-101201770D01*
X137527849Y-101201770D01*
X137506748Y-101199775D01*
X137506738Y-101199775D01*
X137503834Y-101199500D01*
X136496166Y-101199500D01*
X136493262Y-101199775D01*
X136493252Y-101199775D01*
X136472151Y-101201770D01*
X136472150Y-101201770D01*
X136464631Y-101202481D01*
X136393242Y-101227551D01*
X136345557Y-101244296D01*
X136345555Y-101244297D01*
X136336816Y-101247366D01*
X136329363Y-101252871D01*
X136329361Y-101252872D01*
X136295145Y-101278145D01*
X136227850Y-101327850D01*
X136147366Y-101436816D01*
X136102481Y-101564631D01*
X136099500Y-101596166D01*
X136099500Y-102403834D01*
X136099775Y-102406738D01*
X136099775Y-102406748D01*
X136100923Y-102418888D01*
X136102481Y-102435369D01*
X136115822Y-102473358D01*
X136142085Y-102548145D01*
X136147366Y-102563184D01*
X136227850Y-102672150D01*
X136235306Y-102677657D01*
X136329361Y-102747128D01*
X136329363Y-102747129D01*
X136336816Y-102752634D01*
X136345555Y-102755703D01*
X136345557Y-102755704D01*
X136376779Y-102766668D01*
X136464631Y-102797519D01*
X136472150Y-102798230D01*
X136472151Y-102798230D01*
X136493252Y-102800225D01*
X136493262Y-102800225D01*
X136496166Y-102800500D01*
X136550500Y-102800500D01*
X136617539Y-102820185D01*
X136663294Y-102872989D01*
X136674500Y-102924500D01*
X136674500Y-104075500D01*
X136654815Y-104142539D01*
X136602011Y-104188294D01*
X136550500Y-104199500D01*
X136496166Y-104199500D01*
X136493262Y-104199775D01*
X136493252Y-104199775D01*
X136472151Y-104201770D01*
X136472150Y-104201770D01*
X136464631Y-104202481D01*
X136393242Y-104227551D01*
X136345557Y-104244296D01*
X136345555Y-104244297D01*
X136336816Y-104247366D01*
X136329363Y-104252871D01*
X136329361Y-104252872D01*
X136257696Y-104305805D01*
X136227850Y-104327850D01*
X136147366Y-104436816D01*
X136102481Y-104564631D01*
X136099500Y-104596166D01*
X136099500Y-105353834D01*
X128400000Y-105353834D01*
X128400000Y-100403834D01*
X136099500Y-100403834D01*
X136102481Y-100435369D01*
X136147366Y-100563184D01*
X136152871Y-100570637D01*
X136152872Y-100570639D01*
X136193586Y-100625760D01*
X136227850Y-100672150D01*
X136235306Y-100677657D01*
X136329361Y-100747128D01*
X136329363Y-100747129D01*
X136336816Y-100752634D01*
X136345555Y-100755703D01*
X136345557Y-100755704D01*
X136393242Y-100772449D01*
X136464631Y-100797519D01*
X136472150Y-100798230D01*
X136472151Y-100798230D01*
X136493252Y-100800225D01*
X136493262Y-100800225D01*
X136496166Y-100800500D01*
X137503834Y-100800500D01*
X137506738Y-100800225D01*
X137506748Y-100800225D01*
X137527849Y-100798230D01*
X137527850Y-100798230D01*
X137535369Y-100797519D01*
X137606758Y-100772449D01*
X137654443Y-100755704D01*
X137654445Y-100755703D01*
X137663184Y-100752634D01*
X137670637Y-100747129D01*
X137670639Y-100747128D01*
X137764694Y-100677657D01*
X137772150Y-100672150D01*
X137806414Y-100625760D01*
X137847128Y-100570639D01*
X137847129Y-100570637D01*
X137852634Y-100563184D01*
X137886149Y-100467747D01*
X137926935Y-100411017D01*
X137991916Y-100385342D01*
X138060463Y-100398875D01*
X138090826Y-100421152D01*
X138812747Y-101143074D01*
X139520955Y-101851282D01*
X139528264Y-101859257D01*
X139552545Y-101888194D01*
X139561940Y-101893619D01*
X139561941Y-101893619D01*
X139585261Y-101907083D01*
X139594379Y-101912892D01*
X139625316Y-101934554D01*
X139635791Y-101937361D01*
X139639108Y-101938908D01*
X139642561Y-101940165D01*
X139651955Y-101945588D01*
X139662639Y-101947472D01*
X139689155Y-101952148D01*
X139699712Y-101954489D01*
X139725712Y-101961455D01*
X139725713Y-101961455D01*
X139736193Y-101964263D01*
X139746997Y-101963318D01*
X139747000Y-101963318D01*
X139773811Y-101960972D01*
X139784618Y-101960500D01*
X140328359Y-101960500D01*
X140395398Y-101980185D01*
X140415964Y-101996743D01*
X140486395Y-102067051D01*
X140493650Y-102074293D01*
X140502855Y-102078792D01*
X140502857Y-102078794D01*
X140559644Y-102106552D01*
X140598482Y-102125536D01*
X140608006Y-102126925D01*
X140608008Y-102126926D01*
X140662331Y-102134851D01*
X140662336Y-102134851D01*
X140666782Y-102135500D01*
X142383218Y-102135500D01*
X142452112Y-102125358D01*
X142556855Y-102073932D01*
X142639293Y-101991350D01*
X142643792Y-101982145D01*
X142643794Y-101982143D01*
X142679162Y-101909786D01*
X142690536Y-101886518D01*
X142691926Y-101876992D01*
X142699851Y-101822669D01*
X142699851Y-101822664D01*
X142700500Y-101818218D01*
X142700500Y-101451782D01*
X142690358Y-101382888D01*
X142638932Y-101278145D01*
X142597892Y-101237177D01*
X142563602Y-101202946D01*
X142563601Y-101202945D01*
X142556350Y-101195707D01*
X142547145Y-101191208D01*
X142547143Y-101191206D01*
X142490356Y-101163448D01*
X142451518Y-101144464D01*
X142441994Y-101143075D01*
X142441992Y-101143074D01*
X142387669Y-101135149D01*
X142387664Y-101135149D01*
X142383218Y-101134500D01*
X140666782Y-101134500D01*
X140597888Y-101144642D01*
X140493145Y-101196068D01*
X140485903Y-101203323D01*
X140416242Y-101273105D01*
X140354948Y-101306643D01*
X140328484Y-101309500D01*
X139951189Y-101309500D01*
X139884150Y-101289815D01*
X139863508Y-101273181D01*
X138374050Y-99783724D01*
X138366741Y-99775749D01*
X138349427Y-99755115D01*
X138342455Y-99746806D01*
X138333063Y-99741384D01*
X138333061Y-99741382D01*
X138309743Y-99727920D01*
X138300617Y-99722106D01*
X138278568Y-99706667D01*
X138278569Y-99706667D01*
X138269684Y-99700446D01*
X138259209Y-99697639D01*
X138255900Y-99696096D01*
X138252442Y-99694838D01*
X138243045Y-99689412D01*
X138219035Y-99685179D01*
X138205857Y-99682855D01*
X138195310Y-99680517D01*
X138158807Y-99670736D01*
X138121181Y-99674028D01*
X138110373Y-99674500D01*
X138020429Y-99674500D01*
X137953390Y-99654815D01*
X137907635Y-99602011D01*
X137899310Y-99577074D01*
X137898230Y-99572151D01*
X137897519Y-99564631D01*
X137872449Y-99493242D01*
X137855704Y-99445557D01*
X137855703Y-99445555D01*
X137852634Y-99436816D01*
X137772150Y-99327850D01*
X137710980Y-99282669D01*
X137670639Y-99252872D01*
X137670637Y-99252871D01*
X137663184Y-99247366D01*
X137654445Y-99244297D01*
X137654443Y-99244296D01*
X137593318Y-99222831D01*
X137535369Y-99202481D01*
X137527850Y-99201770D01*
X137527849Y-99201770D01*
X137506748Y-99199775D01*
X137506738Y-99199775D01*
X137503834Y-99199500D01*
X136496166Y-99199500D01*
X136493262Y-99199775D01*
X136493252Y-99199775D01*
X136472151Y-99201770D01*
X136472150Y-99201770D01*
X136464631Y-99202481D01*
X136406682Y-99222831D01*
X136345557Y-99244296D01*
X136345555Y-99244297D01*
X136336816Y-99247366D01*
X136329363Y-99252871D01*
X136329361Y-99252872D01*
X136289020Y-99282669D01*
X136227850Y-99327850D01*
X136147366Y-99436816D01*
X136144297Y-99445555D01*
X136144296Y-99445557D01*
X136127551Y-99493242D01*
X136102481Y-99564631D01*
X136101770Y-99572150D01*
X136101770Y-99572151D01*
X136099878Y-99592168D01*
X136099500Y-99596166D01*
X136099500Y-100403834D01*
X128400000Y-100403834D01*
X128400000Y-97391334D01*
X136074500Y-97391334D01*
X136074775Y-97394238D01*
X136074775Y-97394248D01*
X136075957Y-97406748D01*
X136077481Y-97422869D01*
X136102551Y-97494258D01*
X136114276Y-97527646D01*
X136122366Y-97550684D01*
X136127871Y-97558137D01*
X136127872Y-97558139D01*
X136157318Y-97598005D01*
X136202850Y-97659650D01*
X136210306Y-97665157D01*
X136304361Y-97734628D01*
X136304363Y-97734629D01*
X136311816Y-97740134D01*
X136320555Y-97743203D01*
X136320557Y-97743204D01*
X136347411Y-97752634D01*
X136439631Y-97785019D01*
X136447150Y-97785730D01*
X136447151Y-97785730D01*
X136468252Y-97787725D01*
X136468262Y-97787725D01*
X136471166Y-97788000D01*
X137276312Y-97788000D01*
X137343351Y-97807685D01*
X137363993Y-97824319D01*
X140120950Y-100581276D01*
X140128259Y-100589251D01*
X140152545Y-100618194D01*
X140161937Y-100623616D01*
X140161939Y-100623618D01*
X140185257Y-100637080D01*
X140194383Y-100642894D01*
X140225316Y-100664554D01*
X140235791Y-100667361D01*
X140239100Y-100668904D01*
X140242558Y-100670162D01*
X140251955Y-100675588D01*
X140263690Y-100677657D01*
X140289143Y-100682145D01*
X140299690Y-100684483D01*
X140336193Y-100694264D01*
X140343188Y-100693652D01*
X140406058Y-100718244D01*
X140417787Y-100728562D01*
X140486021Y-100796677D01*
X140493650Y-100804293D01*
X140502855Y-100808792D01*
X140502857Y-100808794D01*
X140559644Y-100836552D01*
X140598482Y-100855536D01*
X140608006Y-100856925D01*
X140608008Y-100856926D01*
X140662331Y-100864851D01*
X140662336Y-100864851D01*
X140666782Y-100865500D01*
X142383218Y-100865500D01*
X142452112Y-100855358D01*
X142556855Y-100803932D01*
X142633757Y-100726895D01*
X142695052Y-100693357D01*
X142721516Y-100690500D01*
X143178812Y-100690500D01*
X143245851Y-100710185D01*
X143266493Y-100726819D01*
X144349702Y-101810028D01*
X144390960Y-101851287D01*
X144398267Y-101859261D01*
X144422545Y-101888194D01*
X144455262Y-101907083D01*
X144464380Y-101912892D01*
X144486429Y-101928331D01*
X144486431Y-101928332D01*
X144495316Y-101934553D01*
X144505794Y-101937361D01*
X144509125Y-101938914D01*
X144512561Y-101940165D01*
X144521955Y-101945588D01*
X144532636Y-101947471D01*
X144532638Y-101947472D01*
X144559154Y-101952147D01*
X144569706Y-101954486D01*
X144606193Y-101964263D01*
X144643811Y-101960972D01*
X144654618Y-101960500D01*
X145278359Y-101960500D01*
X145345398Y-101980185D01*
X145365964Y-101996743D01*
X145436395Y-102067051D01*
X145443650Y-102074293D01*
X145452855Y-102078792D01*
X145452857Y-102078794D01*
X145509644Y-102106552D01*
X145548482Y-102125536D01*
X145558006Y-102126925D01*
X145558008Y-102126926D01*
X145612331Y-102134851D01*
X145612336Y-102134851D01*
X145616782Y-102135500D01*
X147333218Y-102135500D01*
X147402112Y-102125358D01*
X147506855Y-102073932D01*
X147583757Y-101996895D01*
X147645052Y-101963357D01*
X147671516Y-101960500D01*
X149975500Y-101960500D01*
X150042539Y-101980185D01*
X150088294Y-102032989D01*
X150099500Y-102084500D01*
X150099500Y-102403834D01*
X150099775Y-102406738D01*
X150099775Y-102406748D01*
X150100923Y-102418888D01*
X150102481Y-102435369D01*
X150115822Y-102473358D01*
X150142085Y-102548145D01*
X150147366Y-102563184D01*
X150227850Y-102672150D01*
X150235306Y-102677657D01*
X150329361Y-102747128D01*
X150329363Y-102747129D01*
X150336816Y-102752634D01*
X150345555Y-102755703D01*
X150345557Y-102755704D01*
X150376779Y-102766668D01*
X150464631Y-102797519D01*
X150472150Y-102798230D01*
X150472151Y-102798230D01*
X150493252Y-102800225D01*
X150493262Y-102800225D01*
X150496166Y-102800500D01*
X151503834Y-102800500D01*
X151506738Y-102800225D01*
X151506748Y-102800225D01*
X151527849Y-102798230D01*
X151527850Y-102798230D01*
X151535369Y-102797519D01*
X151623221Y-102766668D01*
X151654443Y-102755704D01*
X151654445Y-102755703D01*
X151663184Y-102752634D01*
X151670637Y-102747129D01*
X151670639Y-102747128D01*
X151764694Y-102677657D01*
X151772150Y-102672150D01*
X151852634Y-102563184D01*
X151857916Y-102548145D01*
X151884178Y-102473358D01*
X151897519Y-102435369D01*
X151899077Y-102418888D01*
X151900225Y-102406748D01*
X151900225Y-102406738D01*
X151900500Y-102403834D01*
X151900500Y-101596166D01*
X151897519Y-101564631D01*
X151852634Y-101436816D01*
X151772150Y-101327850D01*
X151704855Y-101278145D01*
X151670639Y-101252872D01*
X151670637Y-101252871D01*
X151663184Y-101247366D01*
X151654445Y-101244297D01*
X151654443Y-101244296D01*
X151606758Y-101227551D01*
X151535369Y-101202481D01*
X151527850Y-101201770D01*
X151527849Y-101201770D01*
X151506748Y-101199775D01*
X151506738Y-101199775D01*
X151503834Y-101199500D01*
X150496166Y-101199500D01*
X150493262Y-101199775D01*
X150493252Y-101199775D01*
X150472151Y-101201770D01*
X150472150Y-101201770D01*
X150464631Y-101202481D01*
X150393242Y-101227551D01*
X150345557Y-101244296D01*
X150345555Y-101244297D01*
X150336816Y-101247366D01*
X150285534Y-101285244D01*
X150219916Y-101309238D01*
X150211865Y-101309500D01*
X147671641Y-101309500D01*
X147604602Y-101289815D01*
X147584036Y-101273257D01*
X147513605Y-101202949D01*
X147513604Y-101202948D01*
X147506350Y-101195707D01*
X147497145Y-101191208D01*
X147497143Y-101191206D01*
X147440356Y-101163448D01*
X147401518Y-101144464D01*
X147391994Y-101143075D01*
X147391992Y-101143074D01*
X147337669Y-101135149D01*
X147337664Y-101135149D01*
X147333218Y-101134500D01*
X145616782Y-101134500D01*
X145547888Y-101144642D01*
X145443145Y-101196068D01*
X145435903Y-101203323D01*
X145366242Y-101273105D01*
X145304948Y-101306643D01*
X145278484Y-101309500D01*
X144821188Y-101309500D01*
X144754149Y-101289815D01*
X144733507Y-101273181D01*
X144008544Y-100548218D01*
X145299500Y-100548218D01*
X145309642Y-100617112D01*
X145361068Y-100721855D01*
X145368323Y-100729097D01*
X145436021Y-100796677D01*
X145443650Y-100804293D01*
X145452855Y-100808792D01*
X145452857Y-100808794D01*
X145509644Y-100836552D01*
X145548482Y-100855536D01*
X145558006Y-100856925D01*
X145558008Y-100856926D01*
X145612331Y-100864851D01*
X145612336Y-100864851D01*
X145616782Y-100865500D01*
X147333218Y-100865500D01*
X147402112Y-100855358D01*
X147506855Y-100803932D01*
X147583757Y-100726895D01*
X147645052Y-100693357D01*
X147671516Y-100690500D01*
X150211865Y-100690500D01*
X150278904Y-100710185D01*
X150285522Y-100714747D01*
X150336816Y-100752634D01*
X150345555Y-100755703D01*
X150345557Y-100755704D01*
X150393242Y-100772449D01*
X150464631Y-100797519D01*
X150472150Y-100798230D01*
X150472151Y-100798230D01*
X150493252Y-100800225D01*
X150493262Y-100800225D01*
X150496166Y-100800500D01*
X151503834Y-100800500D01*
X151506738Y-100800225D01*
X151506748Y-100800225D01*
X151527849Y-100798230D01*
X151527850Y-100798230D01*
X151535369Y-100797519D01*
X151606758Y-100772449D01*
X151654443Y-100755704D01*
X151654445Y-100755703D01*
X151663184Y-100752634D01*
X151670637Y-100747129D01*
X151670639Y-100747128D01*
X151764694Y-100677657D01*
X151772150Y-100672150D01*
X151806414Y-100625760D01*
X151847128Y-100570639D01*
X151847129Y-100570637D01*
X151852634Y-100563184D01*
X151897519Y-100435369D01*
X151900500Y-100403834D01*
X151900500Y-99596166D01*
X151900123Y-99592168D01*
X151898230Y-99572151D01*
X151898230Y-99572150D01*
X151897519Y-99564631D01*
X151872449Y-99493242D01*
X151855704Y-99445557D01*
X151855703Y-99445555D01*
X151852634Y-99436816D01*
X151772150Y-99327850D01*
X151710980Y-99282669D01*
X151670639Y-99252872D01*
X151670637Y-99252871D01*
X151663184Y-99247366D01*
X151654445Y-99244297D01*
X151654443Y-99244296D01*
X151593318Y-99222831D01*
X151535369Y-99202481D01*
X151527850Y-99201770D01*
X151527849Y-99201770D01*
X151506748Y-99199775D01*
X151506738Y-99199775D01*
X151503834Y-99199500D01*
X151449500Y-99199500D01*
X151382461Y-99179815D01*
X151336706Y-99127011D01*
X151325500Y-99075500D01*
X151325500Y-97924500D01*
X151345185Y-97857461D01*
X151397989Y-97811706D01*
X151449500Y-97800500D01*
X151503834Y-97800500D01*
X151506738Y-97800225D01*
X151506748Y-97800225D01*
X151527849Y-97798230D01*
X151527850Y-97798230D01*
X151535369Y-97797519D01*
X151606758Y-97772449D01*
X151654443Y-97755704D01*
X151654445Y-97755703D01*
X151663184Y-97752634D01*
X151670637Y-97747129D01*
X151670639Y-97747128D01*
X151764694Y-97677657D01*
X151772150Y-97672150D01*
X151794195Y-97642304D01*
X151847128Y-97570639D01*
X151847129Y-97570637D01*
X151852634Y-97563184D01*
X151860094Y-97541943D01*
X151891688Y-97451973D01*
X151897519Y-97435369D01*
X151898701Y-97422869D01*
X151900225Y-97406748D01*
X151900225Y-97406738D01*
X151900500Y-97403834D01*
X151900500Y-96596166D01*
X151899412Y-96584651D01*
X151898230Y-96572151D01*
X151898230Y-96572150D01*
X151897519Y-96564631D01*
X151865114Y-96472354D01*
X151855704Y-96445557D01*
X151855703Y-96445555D01*
X151852634Y-96436816D01*
X151821245Y-96394318D01*
X151777657Y-96335306D01*
X151772150Y-96327850D01*
X151680108Y-96259866D01*
X151670639Y-96252872D01*
X151670637Y-96252871D01*
X151663184Y-96247366D01*
X151654445Y-96244297D01*
X151654443Y-96244296D01*
X151606758Y-96227551D01*
X151535369Y-96202481D01*
X151527850Y-96201770D01*
X151527849Y-96201770D01*
X151506748Y-96199775D01*
X151506738Y-96199775D01*
X151503834Y-96199500D01*
X150496166Y-96199500D01*
X150493262Y-96199775D01*
X150493252Y-96199775D01*
X150472151Y-96201770D01*
X150472150Y-96201770D01*
X150464631Y-96202481D01*
X150393242Y-96227551D01*
X150345557Y-96244296D01*
X150345555Y-96244297D01*
X150336816Y-96247366D01*
X150329363Y-96252871D01*
X150329361Y-96252872D01*
X150319892Y-96259866D01*
X150227850Y-96327850D01*
X150222343Y-96335306D01*
X150178756Y-96394318D01*
X150147366Y-96436816D01*
X150144297Y-96445555D01*
X150144296Y-96445557D01*
X150134886Y-96472354D01*
X150102481Y-96564631D01*
X150101770Y-96572150D01*
X150101770Y-96572151D01*
X150100589Y-96584651D01*
X150099500Y-96596166D01*
X150099500Y-97403834D01*
X150099775Y-97406738D01*
X150099775Y-97406748D01*
X150101299Y-97422869D01*
X150102481Y-97435369D01*
X150108312Y-97451973D01*
X150139907Y-97541943D01*
X150147366Y-97563184D01*
X150152871Y-97570637D01*
X150152872Y-97570639D01*
X150205805Y-97642304D01*
X150227850Y-97672150D01*
X150235306Y-97677657D01*
X150329361Y-97747128D01*
X150329363Y-97747129D01*
X150336816Y-97752634D01*
X150345555Y-97755703D01*
X150345557Y-97755704D01*
X150393242Y-97772449D01*
X150464631Y-97797519D01*
X150472150Y-97798230D01*
X150472151Y-97798230D01*
X150493252Y-97800225D01*
X150493262Y-97800225D01*
X150496166Y-97800500D01*
X150550500Y-97800500D01*
X150617539Y-97820185D01*
X150663294Y-97872989D01*
X150674500Y-97924500D01*
X150674500Y-99075500D01*
X150654815Y-99142539D01*
X150602011Y-99188294D01*
X150550500Y-99199500D01*
X150496166Y-99199500D01*
X150493262Y-99199775D01*
X150493252Y-99199775D01*
X150472151Y-99201770D01*
X150472150Y-99201770D01*
X150464631Y-99202481D01*
X150406682Y-99222831D01*
X150345557Y-99244296D01*
X150345555Y-99244297D01*
X150336816Y-99247366D01*
X150329363Y-99252871D01*
X150329361Y-99252872D01*
X150289020Y-99282669D01*
X150227850Y-99327850D01*
X150147366Y-99436816D01*
X150144297Y-99445555D01*
X150144296Y-99445557D01*
X150127551Y-99493242D01*
X150102481Y-99564631D01*
X150101770Y-99572150D01*
X150101770Y-99572151D01*
X150099878Y-99592168D01*
X150099500Y-99596166D01*
X150099500Y-99915500D01*
X150079815Y-99982539D01*
X150027011Y-100028294D01*
X149975500Y-100039500D01*
X147671641Y-100039500D01*
X147604602Y-100019815D01*
X147584036Y-100003257D01*
X147513605Y-99932949D01*
X147513604Y-99932948D01*
X147506350Y-99925707D01*
X147497145Y-99921208D01*
X147497143Y-99921206D01*
X147440356Y-99893448D01*
X147401518Y-99874464D01*
X147391994Y-99873075D01*
X147391992Y-99873074D01*
X147337669Y-99865149D01*
X147337664Y-99865149D01*
X147333218Y-99864500D01*
X145616782Y-99864500D01*
X145547888Y-99874642D01*
X145443145Y-99926068D01*
X145360707Y-100008650D01*
X145356208Y-100017855D01*
X145356206Y-100017857D01*
X145329904Y-100071667D01*
X145309464Y-100113482D01*
X145308075Y-100123006D01*
X145308074Y-100123008D01*
X145304323Y-100148724D01*
X145299500Y-100181782D01*
X145299500Y-100548218D01*
X144008544Y-100548218D01*
X143609050Y-100148724D01*
X143601741Y-100140749D01*
X143584427Y-100120115D01*
X143577455Y-100111806D01*
X143568063Y-100106384D01*
X143568061Y-100106382D01*
X143544743Y-100092920D01*
X143535617Y-100087106D01*
X143513568Y-100071667D01*
X143513569Y-100071667D01*
X143504684Y-100065446D01*
X143494209Y-100062639D01*
X143490900Y-100061096D01*
X143487442Y-100059838D01*
X143478045Y-100054412D01*
X143454035Y-100050179D01*
X143440857Y-100047855D01*
X143430310Y-100045517D01*
X143393807Y-100035736D01*
X143356181Y-100039028D01*
X143345373Y-100039500D01*
X142721641Y-100039500D01*
X142654602Y-100019815D01*
X142634036Y-100003257D01*
X142563605Y-99932949D01*
X142563604Y-99932948D01*
X142556350Y-99925707D01*
X142547145Y-99921208D01*
X142547143Y-99921206D01*
X142490356Y-99893448D01*
X142451518Y-99874464D01*
X142441994Y-99873075D01*
X142441992Y-99873074D01*
X142387669Y-99865149D01*
X142387664Y-99865149D01*
X142383218Y-99864500D01*
X140666782Y-99864500D01*
X140597888Y-99874642D01*
X140589240Y-99878888D01*
X140501161Y-99922132D01*
X140432308Y-99934008D01*
X140367965Y-99906773D01*
X140358831Y-99898505D01*
X139738544Y-99278218D01*
X140349500Y-99278218D01*
X140359642Y-99347112D01*
X140411068Y-99451855D01*
X140418323Y-99459097D01*
X140486021Y-99526677D01*
X140493650Y-99534293D01*
X140502855Y-99538792D01*
X140502857Y-99538794D01*
X140555715Y-99564631D01*
X140598482Y-99585536D01*
X140608006Y-99586925D01*
X140608008Y-99586926D01*
X140662331Y-99594851D01*
X140662336Y-99594851D01*
X140666782Y-99595500D01*
X142383218Y-99595500D01*
X142452112Y-99585358D01*
X142556855Y-99533932D01*
X142639293Y-99451350D01*
X142643792Y-99442145D01*
X142643794Y-99442143D01*
X142686308Y-99355167D01*
X142690536Y-99346518D01*
X142692172Y-99335306D01*
X142699851Y-99282669D01*
X142699851Y-99282664D01*
X142700500Y-99278218D01*
X142700500Y-99273642D01*
X145300001Y-99273642D01*
X145300662Y-99282664D01*
X145308722Y-99337426D01*
X145314375Y-99355622D01*
X145356961Y-99442358D01*
X145368734Y-99458803D01*
X145436691Y-99526642D01*
X145453150Y-99538381D01*
X145539977Y-99580823D01*
X145558152Y-99586441D01*
X145612372Y-99594351D01*
X145621320Y-99595000D01*
X146332170Y-99595000D01*
X146347169Y-99590596D01*
X146348356Y-99589226D01*
X146350000Y-99581668D01*
X146350000Y-99577169D01*
X146600000Y-99577169D01*
X146604404Y-99592168D01*
X146605774Y-99593355D01*
X146613332Y-99594999D01*
X147328642Y-99594999D01*
X147337664Y-99594338D01*
X147392426Y-99586278D01*
X147410622Y-99580625D01*
X147497358Y-99538039D01*
X147513803Y-99526266D01*
X147581642Y-99458309D01*
X147593381Y-99441850D01*
X147635823Y-99355023D01*
X147641441Y-99336848D01*
X147649351Y-99282628D01*
X147650000Y-99273680D01*
X147650000Y-99237830D01*
X147645596Y-99222831D01*
X147644226Y-99221644D01*
X147636668Y-99220000D01*
X146617830Y-99220000D01*
X146602831Y-99224404D01*
X146601644Y-99225774D01*
X146600000Y-99233332D01*
X146600000Y-99577169D01*
X146350000Y-99577169D01*
X146350000Y-99237830D01*
X146345596Y-99222831D01*
X146344226Y-99221644D01*
X146336668Y-99220000D01*
X145317831Y-99220000D01*
X145302832Y-99224404D01*
X145301645Y-99225774D01*
X145300001Y-99233332D01*
X145300001Y-99273642D01*
X142700500Y-99273642D01*
X142700500Y-98952170D01*
X145300000Y-98952170D01*
X145304404Y-98967169D01*
X145305774Y-98968356D01*
X145313332Y-98970000D01*
X146332170Y-98970000D01*
X146347169Y-98965596D01*
X146348356Y-98964226D01*
X146350000Y-98956668D01*
X146350000Y-98952170D01*
X146600000Y-98952170D01*
X146604404Y-98967169D01*
X146605774Y-98968356D01*
X146613332Y-98970000D01*
X147632169Y-98970000D01*
X147647168Y-98965596D01*
X147648355Y-98964226D01*
X147649999Y-98956668D01*
X147649999Y-98916358D01*
X147649338Y-98907336D01*
X147641278Y-98852574D01*
X147635625Y-98834378D01*
X147593039Y-98747642D01*
X147581266Y-98731197D01*
X147513309Y-98663358D01*
X147496850Y-98651619D01*
X147410023Y-98609177D01*
X147391848Y-98603559D01*
X147337628Y-98595649D01*
X147328680Y-98595000D01*
X146617830Y-98595000D01*
X146602831Y-98599404D01*
X146601644Y-98600774D01*
X146600000Y-98608332D01*
X146600000Y-98952170D01*
X146350000Y-98952170D01*
X146350000Y-98612831D01*
X146345596Y-98597832D01*
X146344226Y-98596645D01*
X146336668Y-98595001D01*
X145621358Y-98595001D01*
X145612336Y-98595662D01*
X145557574Y-98603722D01*
X145539378Y-98609375D01*
X145452642Y-98651961D01*
X145436197Y-98663734D01*
X145368358Y-98731691D01*
X145356619Y-98748150D01*
X145314177Y-98834977D01*
X145308559Y-98853152D01*
X145300649Y-98907372D01*
X145300000Y-98916320D01*
X145300000Y-98952170D01*
X142700500Y-98952170D01*
X142700500Y-98911782D01*
X142690358Y-98842888D01*
X142638932Y-98738145D01*
X142564391Y-98663734D01*
X142563602Y-98662946D01*
X142563601Y-98662945D01*
X142556350Y-98655707D01*
X142547145Y-98651208D01*
X142547143Y-98651206D01*
X142468635Y-98612831D01*
X142451518Y-98604464D01*
X142441994Y-98603075D01*
X142441992Y-98603074D01*
X142387669Y-98595149D01*
X142387664Y-98595149D01*
X142383218Y-98594500D01*
X141974500Y-98594500D01*
X141907461Y-98574815D01*
X141861706Y-98522011D01*
X141850500Y-98470500D01*
X141850500Y-97720944D01*
X141870185Y-97653905D01*
X141922989Y-97608150D01*
X141958314Y-97598005D01*
X142048703Y-97586105D01*
X142056762Y-97585044D01*
X142064269Y-97581935D01*
X142064271Y-97581934D01*
X142195333Y-97527646D01*
X142202841Y-97524536D01*
X142328282Y-97428282D01*
X142424536Y-97302841D01*
X142441472Y-97261955D01*
X142481934Y-97164271D01*
X142481935Y-97164269D01*
X142485044Y-97156762D01*
X142505682Y-97000000D01*
X142485044Y-96843238D01*
X142424536Y-96697159D01*
X142328282Y-96571718D01*
X142202841Y-96475464D01*
X142160817Y-96458057D01*
X142064271Y-96418066D01*
X142064269Y-96418065D01*
X142056762Y-96414956D01*
X141900000Y-96394318D01*
X141743238Y-96414956D01*
X141735731Y-96418065D01*
X141735729Y-96418066D01*
X141639183Y-96458057D01*
X141597159Y-96475464D01*
X141471718Y-96571718D01*
X141375464Y-96697159D01*
X141314956Y-96843238D01*
X141294318Y-97000000D01*
X141295379Y-97008059D01*
X141302974Y-97065749D01*
X141292208Y-97134784D01*
X141277505Y-97157763D01*
X141271806Y-97162545D01*
X141266384Y-97171937D01*
X141266382Y-97171939D01*
X141252920Y-97195257D01*
X141247106Y-97204383D01*
X141225446Y-97235316D01*
X141222639Y-97245791D01*
X141221096Y-97249100D01*
X141219838Y-97252558D01*
X141214412Y-97261955D01*
X141212528Y-97272641D01*
X141207855Y-97299143D01*
X141205517Y-97309690D01*
X141195736Y-97346193D01*
X141196682Y-97357001D01*
X141199028Y-97383819D01*
X141199500Y-97394627D01*
X141199500Y-98470500D01*
X141179815Y-98537539D01*
X141127011Y-98583294D01*
X141075500Y-98594500D01*
X140666782Y-98594500D01*
X140597888Y-98604642D01*
X140493145Y-98656068D01*
X140410707Y-98738650D01*
X140406208Y-98747855D01*
X140406206Y-98747857D01*
X140406063Y-98748150D01*
X140359464Y-98843482D01*
X140349500Y-98911782D01*
X140349500Y-99278218D01*
X139738544Y-99278218D01*
X137960383Y-97500057D01*
X137926898Y-97438734D01*
X137924614Y-97400705D01*
X137925225Y-97394246D01*
X137925225Y-97394240D01*
X137925500Y-97391334D01*
X137925500Y-96608666D01*
X137924596Y-96599097D01*
X137923230Y-96584651D01*
X137923230Y-96584650D01*
X137922519Y-96577131D01*
X137888554Y-96480411D01*
X137880704Y-96458057D01*
X137880703Y-96458055D01*
X137877634Y-96449316D01*
X137868402Y-96436816D01*
X137802657Y-96347806D01*
X137797150Y-96340350D01*
X137767304Y-96318305D01*
X137695639Y-96265372D01*
X137695637Y-96265371D01*
X137688184Y-96259866D01*
X137679445Y-96256797D01*
X137679443Y-96256796D01*
X137631758Y-96240051D01*
X137560369Y-96214981D01*
X137552850Y-96214270D01*
X137552849Y-96214270D01*
X137531748Y-96212275D01*
X137531738Y-96212275D01*
X137528834Y-96212000D01*
X136471166Y-96212000D01*
X136468262Y-96212275D01*
X136468252Y-96212275D01*
X136447151Y-96214270D01*
X136447150Y-96214270D01*
X136439631Y-96214981D01*
X136368242Y-96240051D01*
X136320557Y-96256796D01*
X136320555Y-96256797D01*
X136311816Y-96259866D01*
X136304363Y-96265371D01*
X136304361Y-96265372D01*
X136232696Y-96318305D01*
X136202850Y-96340350D01*
X136197343Y-96347806D01*
X136131599Y-96436816D01*
X136122366Y-96449316D01*
X136119297Y-96458055D01*
X136119296Y-96458057D01*
X136111446Y-96480411D01*
X136077481Y-96577131D01*
X136076770Y-96584650D01*
X136076770Y-96584651D01*
X136075405Y-96599097D01*
X136074500Y-96608666D01*
X136074500Y-97391334D01*
X128400000Y-97391334D01*
X128400000Y-95316334D01*
X136074500Y-95316334D01*
X136077481Y-95347869D01*
X136096083Y-95400840D01*
X136110679Y-95442403D01*
X136122366Y-95475684D01*
X136202850Y-95584650D01*
X136210306Y-95590157D01*
X136304361Y-95659628D01*
X136304363Y-95659629D01*
X136311816Y-95665134D01*
X136320555Y-95668203D01*
X136320557Y-95668204D01*
X136346451Y-95677297D01*
X136439631Y-95710019D01*
X136447150Y-95710730D01*
X136447151Y-95710730D01*
X136468252Y-95712725D01*
X136468262Y-95712725D01*
X136471166Y-95713000D01*
X137528834Y-95713000D01*
X137531738Y-95712725D01*
X137531748Y-95712725D01*
X137552849Y-95710730D01*
X137552850Y-95710730D01*
X137560369Y-95710019D01*
X137653549Y-95677297D01*
X137679443Y-95668204D01*
X137679445Y-95668203D01*
X137688184Y-95665134D01*
X137695637Y-95659629D01*
X137695639Y-95659628D01*
X137789694Y-95590157D01*
X137797150Y-95584650D01*
X137877634Y-95475684D01*
X137889322Y-95442403D01*
X137903911Y-95400857D01*
X150100001Y-95400857D01*
X150100275Y-95406670D01*
X150102267Y-95427748D01*
X150105482Y-95442406D01*
X150144742Y-95554202D01*
X150153320Y-95570402D01*
X150222703Y-95664339D01*
X150235661Y-95677297D01*
X150329598Y-95746680D01*
X150345798Y-95755258D01*
X150457597Y-95794518D01*
X150472248Y-95797733D01*
X150493315Y-95799725D01*
X150499160Y-95800000D01*
X150857170Y-95800000D01*
X150872169Y-95795596D01*
X150873356Y-95794226D01*
X150875000Y-95786668D01*
X150875000Y-95782169D01*
X151125000Y-95782169D01*
X151129404Y-95797168D01*
X151130774Y-95798355D01*
X151138332Y-95799999D01*
X151500857Y-95799999D01*
X151506670Y-95799725D01*
X151527748Y-95797733D01*
X151542406Y-95794518D01*
X151654202Y-95755258D01*
X151670402Y-95746680D01*
X151764339Y-95677297D01*
X151777297Y-95664339D01*
X151846680Y-95570402D01*
X151855258Y-95554202D01*
X151894518Y-95442403D01*
X151897733Y-95427752D01*
X151899725Y-95406685D01*
X151900000Y-95400840D01*
X151900000Y-95142830D01*
X151895596Y-95127831D01*
X151894226Y-95126644D01*
X151886668Y-95125000D01*
X151142830Y-95125000D01*
X151127831Y-95129404D01*
X151126644Y-95130774D01*
X151125000Y-95138332D01*
X151125000Y-95782169D01*
X150875000Y-95782169D01*
X150875000Y-95142830D01*
X150870596Y-95127831D01*
X150869226Y-95126644D01*
X150861668Y-95125000D01*
X150117831Y-95125000D01*
X150102832Y-95129404D01*
X150101645Y-95130774D01*
X150100001Y-95138332D01*
X150100001Y-95400857D01*
X137903911Y-95400857D01*
X137903917Y-95400840D01*
X137922519Y-95347869D01*
X137925500Y-95316334D01*
X137925500Y-94857170D01*
X150100000Y-94857170D01*
X150104404Y-94872169D01*
X150105774Y-94873356D01*
X150113332Y-94875000D01*
X150857170Y-94875000D01*
X150872169Y-94870596D01*
X150873356Y-94869226D01*
X150875000Y-94861668D01*
X150875000Y-94857170D01*
X151125000Y-94857170D01*
X151129404Y-94872169D01*
X151130774Y-94873356D01*
X151138332Y-94875000D01*
X151882169Y-94875000D01*
X151897168Y-94870596D01*
X151898355Y-94869226D01*
X151899999Y-94861668D01*
X151899999Y-94599143D01*
X151899725Y-94593330D01*
X151897733Y-94572252D01*
X151894518Y-94557594D01*
X151855258Y-94445798D01*
X151846680Y-94429598D01*
X151777297Y-94335661D01*
X151764339Y-94322703D01*
X151670402Y-94253320D01*
X151654202Y-94244742D01*
X151542403Y-94205482D01*
X151527752Y-94202267D01*
X151506685Y-94200275D01*
X151500840Y-94200000D01*
X151142830Y-94200000D01*
X151127831Y-94204404D01*
X151126644Y-94205774D01*
X151125000Y-94213332D01*
X151125000Y-94857170D01*
X150875000Y-94857170D01*
X150875000Y-94217831D01*
X150870596Y-94202832D01*
X150869226Y-94201645D01*
X150861668Y-94200001D01*
X150499143Y-94200001D01*
X150493330Y-94200275D01*
X150472252Y-94202267D01*
X150457594Y-94205482D01*
X150345798Y-94244742D01*
X150329598Y-94253320D01*
X150235661Y-94322703D01*
X150222703Y-94335661D01*
X150153320Y-94429598D01*
X150144742Y-94445798D01*
X150105482Y-94557597D01*
X150102267Y-94572248D01*
X150100275Y-94593315D01*
X150100000Y-94599160D01*
X150100000Y-94857170D01*
X137925500Y-94857170D01*
X137925500Y-94533666D01*
X137922519Y-94502131D01*
X137877634Y-94374316D01*
X137797150Y-94265350D01*
X137716096Y-94205482D01*
X137695639Y-94190372D01*
X137695637Y-94190371D01*
X137688184Y-94184866D01*
X137679445Y-94181797D01*
X137679443Y-94181796D01*
X137631758Y-94165051D01*
X137560369Y-94139981D01*
X137552850Y-94139270D01*
X137552849Y-94139270D01*
X137531748Y-94137275D01*
X137531738Y-94137275D01*
X137528834Y-94137000D01*
X137449500Y-94137000D01*
X137382461Y-94117315D01*
X137336706Y-94064511D01*
X137325500Y-94013000D01*
X137325500Y-93568299D01*
X137345185Y-93501260D01*
X137374014Y-93469923D01*
X137421835Y-93433229D01*
X137428282Y-93428282D01*
X137524536Y-93302841D01*
X137585044Y-93156762D01*
X137605682Y-93000000D01*
X137585044Y-92843238D01*
X137524536Y-92697159D01*
X137428282Y-92571718D01*
X137302841Y-92475464D01*
X137295333Y-92472354D01*
X137164271Y-92418066D01*
X137164269Y-92418065D01*
X137156762Y-92414956D01*
X137000000Y-92394318D01*
X136843238Y-92414956D01*
X136835731Y-92418065D01*
X136835729Y-92418066D01*
X136704667Y-92472354D01*
X136697159Y-92475464D01*
X136571718Y-92571718D01*
X136475464Y-92697159D01*
X136414956Y-92843238D01*
X136394318Y-93000000D01*
X136414956Y-93156762D01*
X136475464Y-93302841D01*
X136571718Y-93428282D01*
X136578165Y-93433229D01*
X136625986Y-93469923D01*
X136667189Y-93526351D01*
X136674500Y-93568299D01*
X136674500Y-94013000D01*
X136654815Y-94080039D01*
X136602011Y-94125794D01*
X136550500Y-94137000D01*
X136471166Y-94137000D01*
X136468262Y-94137275D01*
X136468252Y-94137275D01*
X136447151Y-94139270D01*
X136447150Y-94139270D01*
X136439631Y-94139981D01*
X136368242Y-94165051D01*
X136320557Y-94181796D01*
X136320555Y-94181797D01*
X136311816Y-94184866D01*
X136304363Y-94190371D01*
X136304361Y-94190372D01*
X136283904Y-94205482D01*
X136202850Y-94265350D01*
X136122366Y-94374316D01*
X136077481Y-94502131D01*
X136074500Y-94533666D01*
X136074500Y-95316334D01*
X128400000Y-95316334D01*
X128400000Y-91024000D01*
X128419685Y-90956961D01*
X128472489Y-90911206D01*
X128524000Y-90900000D01*
X159476000Y-90900000D01*
X159543039Y-90919685D01*
G37*
%TD.AperFunction*%
%TD*%
M02*
